<?xml version="1.0" encoding="UTF-8" standalone="no"?>
<svg width="97px" height="93px" viewBox="0 0 97 93" version="1.1" xmlns="http://www.w3.org/2000/svg" xmlns:xlink="http://www.w3.org/1999/xlink" xmlns:sketch="http://www.bohemiancoding.com/sketch/ns">
    <!-- Generator: Sketch 3.3 (11970) - http://www.bohemiancoding.com/sketch -->
    <title>logo</title>
    <desc>Created with Sketch.</desc>
    <defs></defs>
    <g id="Page-1" stroke="none" stroke-width="1" fill="none" fill-rule="evenodd" sketch:type="MSPage">
        <g id="Akwa" sketch:type="MSArtboardGroup" transform="translate(-10.000000, -12.000000)" fill="#FFFFFF">
            <g id="logo" sketch:type="MSLayerGroup" transform="translate(10.000000, 12.000000)">
                <path d="M48.139,0.511 C21.665,0.511 0.126,21.142 0.126,46.5 C0.126,71.859 21.665,92.49 48.139,92.49 C74.613,92.49 96.151,71.859 96.151,46.5 C96.151,21.142 74.613,0.511 48.139,0.511 L48.139,0.511 Z M48.139,4.511 C72.446,4.511 92.151,23.31 92.151,46.5 C92.151,69.691 72.446,88.49 48.139,88.49 C23.831,88.49 4.126,69.691 4.126,46.5 C4.126,23.31 23.831,4.511 48.139,4.511 L48.139,4.511 Z" id="Fill-6" sketch:type="MSShapeGroup"></path>
                <path d="M70.356,43.675 C70.356,43.675 68.206,44.055 67.321,42.157 C67.321,42.157 65.676,39.417 70.567,37.647 C70.567,37.647 71.999,35.876 68.122,36.045 L72.842,32.251 C72.842,32.251 77.059,39.628 70.356,43.675 L70.356,43.675 Z M53.198,49.704 L53.03,47.597 C53.03,47.597 63.315,34.275 60.872,29.469 C60.872,29.469 60.028,28.414 59.606,28.794 C59.184,29.173 57.877,36.467 53.366,41.189 C53.366,41.189 53.407,40.574 53.512,39.573 C53.836,36.476 54.782,29.666 57.077,25.843 C57.077,25.843 65.17,25.843 70.229,29.806 C70.229,29.806 59.69,38.49 53.198,49.704 L53.198,49.704 Z M48.645,46.5 C48.645,46.5 46.874,50.21 41.899,50.969 C41.899,50.969 46.115,31.66 53.03,25.759 C53.03,25.759 48.392,34.696 48.645,46.5 L48.645,46.5 Z M30.347,69.013 C30.347,69.013 37.6,63.533 39.876,55.944 C39.876,55.944 45.019,55.353 48.645,52.065 L48.897,57.124 C48.897,57.124 45.44,67.325 30.347,69.013 L30.347,69.013 Z M26.217,41.02 C27.818,29.216 46.79,26.517 46.79,26.517 C40.382,34.864 36.419,52.571 36.419,52.571 C33.384,52.824 24.614,52.824 26.217,41.02 L26.217,41.02 Z M81.612,27.361 C81.612,27.361 81.274,23.061 75.374,27.023 C75.374,27.023 67.362,21.374 58.17,22.723 C58.17,22.723 60.956,17.327 64.665,14.291 C64.665,14.291 60.702,8.727 49.656,22.723 C49.656,22.723 24.554,22.698 19.303,39.502 C14.665,54.341 32.962,56.786 34.312,56.534 C34.312,56.534 29.42,68.001 23.435,68.423 C17.447,68.844 16.605,64.037 22.844,63.448 C22.844,63.448 16.267,61.171 16.267,67.241 C16.267,73.313 24.867,72.807 27.649,72.807 C27.649,72.807 42.32,71.288 49.909,60.412 C49.909,60.412 54.209,78.371 70.651,73.313 C70.651,73.313 76.301,70.488 78.071,65.555 C79.303,62.126 79.381,58.165 77.143,55.648 C73.991,52.104 68.627,51.264 65.465,55.353 C65.465,55.353 61.629,61.888 68.838,62.9 C68.838,62.9 70.188,62.562 69.26,61.593 C68.696,61.001 67.11,61.128 67.11,58.81 C67.11,56.491 69.807,54.173 73.391,57.293 C73.391,57.293 76.469,60.792 73.094,65.977 C71.971,67.707 68.42,69.7 64.665,69.687 C59.418,69.667 53.723,66.136 53.282,56.113 C53.282,56.113 58.51,45.235 62.725,41.357 C62.725,41.357 61.967,48.525 69.723,48.609 C69.723,48.609 77.858,49.332 79.083,40.092 C79.083,40.092 80.262,33.093 76.637,29.974 C76.637,29.974 76.975,28.372 81.612,27.361 L81.612,27.361 Z" id="Fill-7" sketch:type="MSShapeGroup"></path>
            </g>
        </g>
    </g>
</svg>